<?xml version="1.0" encoding="UTF-8" standalone="no"?>
<svg
   xmlns:dc="http://purl.org/dc/elements/1.1/"
   xmlns:cc="http://creativecommons.org/ns#"
   xmlns:rdf="http://www.w3.org/1999/02/22-rdf-syntax-ns#"
   xmlns:svg="http://www.w3.org/2000/svg"
   xmlns="http://www.w3.org/2000/svg"
   xmlns:sodipodi="http://sodipodi.sourceforge.net/DTD/sodipodi-0.dtd"
   xmlns:inkscape="http://www.inkscape.org/namespaces/inkscape"
   version="1.0"
   width="694.000000pt"
   height="738.000000pt"
   viewBox="0 0 694.000000 738.000000"
   preserveAspectRatio="xMidYMid meet"
   id="svg2"
   inkscape:version="0.91 r13725"
   sodipodi:docname="bad.svg">
  <defs
     id="defs18" />
  <sodipodi:namedview
     pagecolor="#ffffff"
     bordercolor="#666666"
     borderopacity="1"
     objecttolerance="10"
     gridtolerance="10"
     guidetolerance="10"
     inkscape:pageopacity="0"
     inkscape:pageshadow="2"
     inkscape:window-width="794"
     inkscape:window-height="654"
     id="namedview16"
     showgrid="false"
     inkscape:zoom="0.25582656"
     inkscape:cx="-133.04025"
     inkscape:cy="461.25"
     inkscape:window-x="384"
     inkscape:window-y="218"
     inkscape:window-maximized="0"
     inkscape:current-layer="svg2" />
  <metadata
     id="metadata4">
Created by potrace 1.13, written by Peter Selinger 2001-2015
<rdf:RDF>
  <cc:Work
     rdf:about="">
    <dc:format>image/svg+xml</dc:format>
    <dc:type
       rdf:resource="http://purl.org/dc/dcmitype/StillImage" />
  </cc:Work>
</rdf:RDF>
</metadata>
  <path
     style="fill:#d90000;stroke:none;fill-opacity:1"
     inkscape:connector-curvature="0"
     id="path8"
     d="m 291.5,55.1 c -32,3.7 -51.2,9.3 -80.1,23.6 -15.8,7.7 -18.9,9.5 -33.9,19.6 -19.1,12.9 -33.6,25.5 -50.9,44.5 -6.5,7.2 -14.3,16.4 -17.3,20.4 -2.9,4 -5.7,7.7 -6.1,8.3 -2.5,3.3 -15.3,23.2 -19.2,30 -5.3,9.3 -19,37.2 -19,38.8 0,0.3 -1,2.7 -2.2,5.4 -8.7,19.4 -21.6,60.9 -25.2,81.3 -0.3,1.9 -0.8,4.6 -1.1,6 -2.4,11.4 -3.7,20 -5.4,35.5 -2.8,26.1 -3.5,34.6 -4.5,59 -0.4,8.7 1.2,44.8 2.4,53 0.5,3.8 1.5,11.5 2.1,17 1,8.5 9,52.9 10.4,57.5 0.3,0.8 2.3,11.2 4.5,23 2.2,11.8 4.7,24.6 5.6,28.5 2,8.4 5.4,21.4 6.2,23.5 0.3,0.8 1.1,4 1.8,7 2.3,10.2 5.4,20.2 7.9,25.8 2.5,5.4 2.6,5.5 6,4.9 2.9,-0.5 5.5,0.3 13.3,4 14,6.5 14,6.5 15.1,4.5 0.5,-0.9 1.2,-4.3 1.6,-7.5 0.4,-3.1 1.1,-6 1.6,-6.3 0.5,-0.3 0.9,-1.2 0.9,-2.1 0,-3.2 6.4,-22 12.2,-36.1 15.3,-37.1 38.2,-73.6 59.3,-94.7 13.8,-13.8 27.1,-20.5 40.8,-20.5 6.8,0 10,1.1 13.3,4.7 4.2,4.7 11.2,19.6 13.3,28.4 5.7,23.7 9.3,82.9 6.2,101.1 -1.5,8.6 -0.9,12.8 1.7,12.9 1.8,0 7.3,2.8 13.5,6.7 2,1.3 3.9,2.3 4.2,2.3 0.3,-0.1 1.9,0.6 3.7,1.5 3,1.5 3.2,1.5 4.5,-0.2 0.7,-1 1.4,-3.8 1.5,-6.3 0.3,-10.5 0.9,-13.8 4.9,-28.6 4.4,-16.2 7.9,-27.6 9.5,-31.2 0.8,-1.7 1.4,-3.7 1.4,-4.5 0,-0.8 0.4,-1.8 0.8,-2.3 0.5,-0.6 2.1,-4.2 3.7,-8 13.5,-33.2 37.4,-66.8 54,-75.9 7.7,-4.2 16.3,-6.6 23.3,-6.5 4.4,0.1 5.5,0.6 8.5,3.8 4,4.1 14.3,24.2 17.5,34.1 3.5,10.7 7.1,26.9 8.1,36.5 0.5,4.9 0.7,18.7 0.4,30.5 -0.6,21.3 -0.7,28.6 -0.4,36.7 0.1,4.2 0.2,4.3 6.4,7.3 3.4,1.7 8,4.1 10.2,5.4 2.2,1.3 5.6,2.6 7.5,3 l 3.5,0.6 1.3,-7.7 c 0.7,-4.3 1.5,-8.7 1.6,-9.8 0.4,-2.6 7.4,-22.5 8.4,-23.9 0.5,-0.6 1.7,-3.4 2.7,-6.1 2.4,-6.5 12.4,-26.2 17.5,-34.5 12,-19.2 36.1,-46.6 50,-56.8 7.3,-5.3 17.5,-10.8 22.7,-12.2 5.2,-1.3 20.4,-1.6 22.5,-0.4 3.3,1.9 10,11.6 14.2,20.6 8.7,18.8 12.6,35.4 12.7,54.7 0.1,14.2 -1.9,26.3 -7.7,46.3 -1.9,6.6 -3.4,12.6 -3.4,13.3 0,0.8 -0.7,1.8 -1.6,2.3 -1.1,0.6 -1.3,1.1 -0.5,1.6 0.6,0.4 1.1,1.8 1.1,3.1 0,2.2 4.3,6.4 6.7,6.5 0.4,0.1 2.4,1.4 4.3,3 1.9,1.7 4,3 4.8,3 0.7,0 2.7,0.7 4.3,1.6 2.2,1.1 3.4,1.2 4.3,0.5 1,-0.8 2.8,-0.5 6.7,1.3 8.4,3.7 10.4,3.9 11.7,1.3 1.6,-3.2 4,-14.2 4.7,-21.7 0.4,-3.6 1.1,-8.1 1.5,-10 1.2,-4.8 3,-17.6 4,-29 0.4,-5.2 1.3,-14.7 1.9,-21 3.4,-38.6 3.5,-109.4 0.1,-151 -2.5,-30.3 -8.3,-68.2 -14.5,-94.5 -0.8,-3.3 -2.6,-11 -4,-17 -3.1,-13.6 -3.3,-14.2 -9.6,-34.5 -6.1,-19.8 -10.6,-33.4 -12.4,-37.5 -2.8,-6.4 -8.3,-19.2 -9.6,-22.4 -1.3,-3.2 -13.9,-28.3 -18.1,-36.1 -3.2,-5.9 -17.1,-26.6 -18.7,-28 -0.8,-0.6 -5.6,-6.4 -9.9,-11.7 -7.8,-9.7 -34.1,-34.2 -46.2,-43 C 452.1,81.6 410.3,63.7 365.4,57 336.5,52.6 316.9,52.1 291.5,55.1 Z M 361,73.6 c 16.2,1.8 28.5,3.9 32.4,5.4 1.6,0.6 4.9,1.5 7.5,2 2.5,0.6 5.5,1.5 6.6,2 1.1,0.5 4.9,1.9 8.5,3 14.6,4.8 37.1,15.9 52.5,26 27.6,18 49.3,39.2 66.3,64.6 6,9 18.5,31.7 21.2,38.4 0.7,1.9 2.8,6.6 4.6,10.5 17.3,38.2 35,100.5 42.9,152 1.4,8.8 3,18.5 3.5,21.5 3.2,18.7 5.1,58 4.9,102 -0.2,38.8 -0.5,49 -1.7,49 -0.4,0 -2.5,-3.9 -4.6,-8.5 -7,-15.5 -24.1,-38.6 -33.4,-45.6 -1.8,-1.3 -3.9,-2.9 -4.5,-3.4 -1.5,-1.4 -9,-4.8 -14.2,-6.6 -5.9,-2 -23.8,-1.8 -29.8,0.4 -15.9,5.7 -25.8,12.6 -42.7,29.6 -18.5,18.7 -26.4,28.8 -39.5,50.9 -2.7,4.5 -5.1,8.2 -5.5,8.2 -0.3,0 -1.1,-2.1 -1.8,-4.8 C 425,536.3 415.6,517.6 400.3,502.8 385,487.9 380.9,485.1 370,482.4 c -21.2,-5.2 -40.6,2.9 -60,25.1 -9.2,10.6 -19.9,27.3 -29.1,45.5 -5.9,11.8 -5.2,11.9 -8.4,-2 -1.6,-6.9 -3.2,-11.1 -7.4,-19.8 -4.1,-8.4 -23.1,-25.3 -37.8,-33.5 -7.7,-4.4 -20.5,-7.7 -29.6,-7.7 -14.3,0 -30.2,7.2 -41.7,18.9 -2.5,2.5 -6.4,6.2 -8.5,8.1 -7.7,6.9 -21.6,24.5 -29.5,37.5 -12.4,20.3 -31,56 -31,59.5 0,2.2 -2.5,0.3 -2.7,-2.1 -0.2,-1.3 -1,-5.8 -1.8,-9.9 -0.8,-4.1 -2.1,-11.6 -2.9,-16.5 C 77.8,575.2 73.9,554 71.1,539.5 66.5,515.9 63.9,500.9 63,491.5 62.4,486 61.4,478.1 60.9,474 59.2,461.6 58.6,423.9 59.9,407.5 61.7,384.4 62,381 63,374 c 0.5,-3.6 1.2,-9.2 1.5,-12.5 0.8,-8.8 3.1,-22.1 6.1,-34.5 3.7,-15.9 5.2,-21.7 6.1,-25 10.2,-33.1 13.1,-40.7 26.8,-69.7 9.7,-20.4 28.6,-50 40.4,-63.2 1.1,-1.3 2.1,-2.7 2.1,-3 0,-1.1 26,-27.3 34,-34.4 19.6,-17.2 51.9,-36.8 74.5,-45 14.1,-5.1 31.6,-10.2 39,-11.3 30.2,-4.4 42.1,-4.7 67.5,-1.8 z" />
  <path
     style="fill:#d90000;stroke:none;fill-opacity:1"
     inkscape:connector-curvature="0"
     id="path10"
     d="m 232,191.5 c -0.9,1.1 -1.1,4.9 -0.6,14.4 0.3,7.2 0.9,13.7 1.2,14.4 0.3,0.8 2.4,2.3 4.7,3.3 2.3,1 11.5,6.3 20.5,11.7 9,5.5 16.5,9.7 16.8,9.5 0.6,-0.7 5.4,-24.7 5.4,-27.3 0,-1.8 -2.1,-3.5 -9.7,-8.2 -5.4,-3.2 -13.6,-7.8 -18.3,-10.2 -4.7,-2.4 -10,-5.2 -11.7,-6.3 -1.8,-1.1 -3.3,-1.7 -3.3,-1.3 0,0.3 -0.9,0.1 -1.9,-0.4 -1.4,-0.8 -2.2,-0.7 -3.1,0.4 z" />
  <path
     style="fill:#d90000;stroke:none;fill-opacity:1"
     inkscape:connector-curvature="0"
     id="path12"
     d="m 440,211.1 c -4.7,2.2 -9.3,4.3 -10.2,4.6 -1,0.3 -1.8,0.9 -1.8,1.4 0,0.5 -0.7,0.9 -1.5,0.9 -0.8,0 -3.1,0.9 -5.2,2.1 -12.8,7.1 -14.3,8.2 -14.9,10.5 -0.4,1.4 -0.4,7.5 -0.2,13.5 0.6,13.6 1.7,15.6 7,11.6 3.7,-2.9 32.2,-16.7 34.3,-16.7 1.8,0 3.5,-3.1 3.5,-6.4 0,-1.4 0.5,-2.8 1,-3.1 0.6,-0.3 1,-1.4 1,-2.4 0,-1 0.9,-4.4 2.1,-7.7 1.1,-3.2 2.2,-6.6 2.5,-7.5 0.4,-1.1 -0.5,-2.1 -2.9,-3.2 -4.7,-2.3 -4.9,-2.2 -14.7,2.4 z" />
  <path
     style="fill:#d90000;stroke:none;fill-opacity:1"
     inkscape:connector-curvature="0"
     id="path14"
     d="m 281.5,368 c -36.9,2.4 -73.3,13.3 -95.8,28.6 -2.6,1.8 -5.6,3.6 -6.7,3.9 -1,0.3 -2.2,1.4 -2.5,2.4 -0.5,1.6 0.9,4.2 13.1,23.8 1.9,3 3.9,2.9 8.3,-0.5 4.5,-3.6 17.6,-11.3 21.6,-12.8 11.6,-4.4 16,-5.9 24,-7.9 13.4,-3.5 23.8,-5.3 35.5,-6.1 13.3,-1 48.8,-1 60,0 4.7,0.4 11.7,0.9 15.5,1.1 3.9,0.2 9.6,0.8 12.8,1.4 3.1,0.6 8.2,1.5 11.2,2.1 3,0.5 7.9,1.4 10.8,2 6.2,1.1 13,3 21.2,5.9 3.3,1.2 8.6,3.1 11.7,4.2 8.9,3 29.1,16.2 36.8,23.9 5.6,5.7 13.6,16.2 15.5,20.5 3.6,7.8 6.2,13.8 7,16.3 0.4,1.3 1.3,2.2 2.1,2 0.8,-0.2 1.4,-0.6 1.2,-0.9 -0.2,-0.4 0.4,-1.5 1.4,-2.5 0.9,-1.1 1.9,-3.7 2.3,-5.9 0.7,-4.2 2.1,-9.4 3.7,-13.4 0.5,-1.3 0.6,-5.1 0.2,-8.4 -0.6,-4.9 -1.2,-6.6 -3.5,-8.7 -1.6,-1.4 -4.9,-5.5 -7.4,-9 -24.8,-35.4 -71.2,-55.6 -139.5,-61.1 -17.3,-1.3 -46.4,-1.8 -60.5,-0.9 z" />
</svg>
