<?xml version="1.0" encoding="UTF-8" standalone="no"?>
<svg
   xmlns:dc="http://purl.org/dc/elements/1.1/"
   xmlns:cc="http://creativecommons.org/ns#"
   xmlns:rdf="http://www.w3.org/1999/02/22-rdf-syntax-ns#"
   xmlns:svg="http://www.w3.org/2000/svg"
   xmlns="http://www.w3.org/2000/svg"
   xmlns:sodipodi="http://sodipodi.sourceforge.net/DTD/sodipodi-0.dtd"
   xmlns:inkscape="http://www.inkscape.org/namespaces/inkscape"
   version="1.0"
   width="824.000000pt"
   height="761.000000pt"
   viewBox="0 0 824.000000 761.000000"
   preserveAspectRatio="xMidYMid meet"
   id="svg2"
   inkscape:version="0.91 r13725"
   sodipodi:docname="happy.svg">
  <defs
     id="defs22" />
  <sodipodi:namedview
     pagecolor="#ffffff"
     bordercolor="#666666"
     borderopacity="1"
     objecttolerance="10"
     gridtolerance="10"
     guidetolerance="10"
     inkscape:pageopacity="0"
     inkscape:pageshadow="2"
     inkscape:window-width="700"
     inkscape:window-height="480"
     id="namedview20"
     showgrid="false"
     inkscape:zoom="0.24809461"
     inkscape:cx="515"
     inkscape:cy="475.625"
     inkscape:window-x="1174"
     inkscape:window-y="396"
     inkscape:window-maximized="0"
     inkscape:current-layer="svg2" />
  <metadata
     id="metadata4">
Created by potrace 1.13, written by Peter Selinger 2001-2015
<rdf:RDF>
  <cc:Work
     rdf:about="">
    <dc:format>image/svg+xml</dc:format>
    <dc:type
       rdf:resource="http://purl.org/dc/dcmitype/StillImage" />
  </cc:Work>
</rdf:RDF>
</metadata>
  <g
     transform="translate(0.000000,761.000000) scale(0.100000,-0.100000)"
     fill="#000000"
     stroke="none"
     id="g6"
     style="fill:#007f00;fill-opacity:1">
    <path
       d="M3415 7295 c-5 -1 -37 -10 -70 -20 -119 -34 -281 -87 -340 -113 -128 -56 -635 -329 -700 -377 -76 -56 -136 -95 -144 -95 -5 0 -11 -3 -13 -7 -1 -5 -37 -30 -78 -57 -91 -59 -146 -100 -315 -235 -276 -220 -547 -495 -735 -746 -41 -55 -85 -111 -98 -125 -38 -41 -140 -194 -178 -267 -20 -37 -40 -72 -44 -78 -28 -38 -183 -451 -196 -522 -3 -13 -12 -45 -20 -70 -19 -56 -43 -179 -63 -318 -44 -312 -3 -765 100 -1124 34 -117 90 -286 114 -346 9 -22 19 -49 24 -60 21 -54 152 -322 206 -420 34 -62 51 -93 92 -160 42 -73 140 -225 160 -250 13 -16 27 -34 31 -40 4 -5 30 -39 57 -74 28 -35 61 -78 75 -96 261 -341 609 -679 880 -857 98 -64 297 -169 355 -188 22 -7 49 -18 61 -25 35 -22 425 -155 454 -155 8 0 44 -9 80 -21 98 -32 125 -39 147 -39 11 0 23 -3 27 -7 3 -4 14 -8 24 -9 9 -1 58 -10 107 -19 222 -42 303 -52 615 -75 119 -10 440 -6 495 5 11 2 61 7 110 11 145 10 518 77 660 118 121 36 140 41 147 41 3 0 10 3 14 7 4 5 14 8 23 8 19 0 186 61 249 90 23 11 61 29 85 39 134 61 211 101 307 159 19 12 42 25 50 28 8 4 36 22 61 39 25 18 54 35 65 39 10 3 33 19 51 36 18 16 35 30 39 30 3 0 34 21 68 46 33 25 74 55 91 67 16 12 48 38 70 58 22 19 69 58 105 86 81 64 437 425 452 458 6 14 14 25 17 25 7 0 151 196 224 306 51 75 67 103 155 264 59 107 142 281 142 298 0 4 11 30 25 57 13 28 25 58 25 67 0 9 4 20 10 23 6 3 10 14 10 25 0 10 11 51 25 92 14 40 25 83 25 96 0 12 4 30 9 40 21 37 81 380 95 542 4 41 9 90 12 108 6 41 6 375 0 422 -3 19 -17 138 -31 263 -14 126 -30 240 -36 254 -5 13 -9 43 -9 65 0 23 -4 55 -9 72 -6 17 -15 58 -21 91 -6 33 -17 83 -25 110 -7 28 -17 70 -20 95 -4 24 -11 51 -16 60 -5 8 -22 61 -39 117 -17 56 -38 119 -47 140 -9 21 -17 40 -18 43 0 5 -11 35 -47 125 -22 57 -25 63 -70 165 -57 129 -199 376 -245 426 -12 13 -20 24 -17 24 5 0 -125 173 -176 235 -110 131 -310 321 -415 392 -22 15 -56 39 -75 54 -19 14 -71 46 -115 69 -44 24 -87 47 -95 51 -30 16 -233 95 -253 98 -4 0 -20 7 -36 16 -28 14 -93 35 -211 69 -47 14 -98 25 -185 41 -11 2 -39 9 -62 14 -24 6 -75 16 -115 22 -40 6 -82 12 -93 14 -11 2 -63 8 -115 15 -52 7 -104 13 -115 15 -11 1 -63 6 -115 9 -52 4 -122 10 -155 13 -76 7 -559 6 -730 -1 -226 -10 -591 -50 -695 -76 -19 -5 -84 -19 -143 -31 -141 -29 -157 -17 -53 39 42 23 93 59 114 80 22 22 49 43 60 47 12 3 22 12 22 20 0 9 -17 13 -57 13 -32 0 -62 -1 -68 -3z m1765 -409 c190 -21 302 -36 314 -43 5 -4 24 -8 41 -10 79 -7 116 -12 151 -22 22 -5 50 -12 64 -15 14 -3 50 -12 80 -20 30 -8 85 -22 123 -32 43 -11 67 -22 67 -32 0 -9 6 -12 17 -8 18 7 118 -23 201 -60 29 -13 58 -24 65 -24 7 0 22 -6 33 -14 11 -8 56 -32 99 -55 44 -22 91 -51 105 -63 35 -31 86 -59 94 -51 3 3 6 -1 6 -11 0 -9 5 -14 10 -11 6 3 10 1 10 -4 0 -6 5 -11 10 -11 10 0 22 -8 55 -37 7 -7 18 -13 24 -13 6 0 11 -6 11 -12 0 -7 14 -24 32 -38 39 -31 44 -37 68 -77 11 -18 29 -33 42 -35 13 -2 23 -8 23 -15 0 -6 18 -26 39 -45 22 -18 49 -44 60 -58 12 -13 35 -39 51 -56 17 -18 35 -40 41 -51 7 -10 18 -17 25 -16 8 2 15 -7 15 -20 1 -12 30 -64 64 -116 70 -106 113 -179 136 -231 9 -19 31 -66 49 -105 18 -38 43 -95 55 -125 12 -30 28 -68 35 -85 43 -100 115 -310 133 -385 28 -119 35 -150 48 -215 56 -277 82 -510 90 -810 5 -209 -7 -359 -41 -515 -9 -41 -18 -84 -20 -95 -12 -65 -60 -241 -67 -243 -4 -2 -8 -12 -8 -21 0 -10 -3 -21 -8 -25 -4 -4 -7 -11 -7 -14 -1 -15 -49 -133 -87 -212 -22 -47 -44 -95 -49 -107 -4 -12 -21 -41 -36 -65 -15 -24 -32 -52 -38 -63 -26 -46 -41 -71 -52 -85 -6 -8 -23 -37 -39 -65 -15 -27 -41 -69 -58 -91 -17 -23 -38 -52 -46 -64 -30 -45 -71 -100 -89 -122 -18 -22 -82 -101 -181 -224 -25 -30 -91 -99 -148 -152 -57 -53 -136 -127 -175 -164 -40 -38 -75 -68 -78 -68 -6 0 -102 -75 -139 -108 -34 -30 -242 -170 -280 -188 -8 -4 -43 -25 -78 -46 -34 -21 -65 -38 -68 -38 -3 0 -18 -8 -32 -19 -34 -24 -165 -90 -262 -131 -114 -49 -133 -57 -160 -65 -14 -4 -29 -11 -35 -14 -5 -4 -30 -13 -55 -20 -25 -7 -54 -17 -65 -21 -34 -13 -218 -62 -250 -67 -16 -2 -64 -13 -105 -23 -154 -38 -469 -79 -678 -88 -129 -6 -421 1 -507 12 -16 2 -66 7 -110 11 -260 23 -754 130 -975 212 -36 13 -72 26 -80 28 -26 5 -214 88 -240 104 -24 16 -49 30 -149 83 -28 15 -78 46 -112 70 -34 24 -72 50 -84 58 -66 44 -272 218 -350 297 -171 171 -262 268 -300 318 -20 27 -43 54 -50 60 -30 24 -188 244 -259 360 -92 150 -232 407 -255 466 -8 19 -24 57 -37 84 -53 118 -158 435 -184 560 -7 33 -17 75 -22 93 -18 61 -45 365 -41 467 6 158 38 373 73 475 4 14 27 84 50 155 23 72 50 149 61 172 10 24 19 48 19 54 0 24 148 297 199 369 30 41 78 114 106 161 29 48 57 93 64 100 6 8 47 60 92 117 45 57 113 138 151 180 98 107 332 338 398 392 69 57 155 134 200 180 19 20 51 46 70 60 19 13 63 47 96 75 34 27 92 70 128 95 37 25 84 59 106 75 88 68 127 95 137 95 5 0 18 9 28 20 21 23 55 27 55 5 0 -8 7 -15 15 -15 9 0 15 -9 15 -25 0 -24 0 -24 41 -10 36 13 44 13 68 0 24 -14 33 -13 116 10 150 42 277 76 335 90 30 7 82 20 115 30 71 20 133 31 435 80 145 23 336 42 455 44 55 1 102 4 105 7 11 11 738 -6 870 -20z"
       id="path8"
       style="fill:#007f00;fill-opacity:1" />
    <path
       d="M3047 5536 c-73 -21 -131 -51 -171 -89 -37 -36 -40 -47 -39 -212 0 -64 16 -210 24 -229 26 -56 156 -77 249 -41 25 9 54 20 65 25 51 19 138 67 152 82 9 10 24 18 35 18 10 0 18 3 18 8 0 4 23 23 51 42 28 19 57 46 64 60 7 14 16 72 19 130 7 100 6 106 -16 132 -29 35 -60 42 -185 43 -83 1 -106 5 -122 19 -26 24 -85 28 -144 12z"
       id="path10"
       style="fill:#007f00;fill-opacity:1" />
    <path
       d="M5771 5199 c-83 -27 -132 -57 -142 -88 -3 -8 -32 -29 -65 -47 -58 -31 -82 -60 -88 -107 -2 -12 -7 -30 -11 -40 -11 -26 -1 -193 13 -209 18 -22 141 -42 207 -34 67 8 172 36 235 64 55 24 85 34 85 30 1 -2 15 11 31 27 35 33 49 88 59 217 l6 77 -41 41 c-37 37 -45 41 -85 39 -37 -2 -47 1 -65 24 -26 33 -51 34 -139 6z"
       id="path12"
       style="fill:#007f00;fill-opacity:1" />
    <path
       d="M4184 4380 c-59 -71 -243 -247 -343 -329 -77 -62 -136 -115 -198 -178 l-63 -62 0 -68 c1 -98 18 -215 34 -231 25 -25 96 -32 226 -21 69 5 188 13 265 17 l140 7 14 29 c8 17 16 50 19 75 2 25 9 51 14 58 5 7 5 14 -1 17 -6 4 -8 19 -6 34 7 35 -30 77 -76 88 -48 11 -46 11 -126 12 -85 2 -91 12 -40 64 130 134 181 212 191 293 19 154 19 179 -2 205 l-20 25 -28 -35z"
       id="path14"
       style="fill:#007f00;fill-opacity:1" />
    <path
       d="M2325 3832 c-6 -9 -10 -75 -10 -147 0 -107 3 -135 17 -156 10 -14 20 -46 23 -72 4 -39 27 -143 51 -224 3 -13 10 -23 15 -23 5 0 9 -6 9 -14 0 -18 15 -52 40 -91 10 -16 33 -57 50 -90 150 -290 460 -508 860 -605 52 -13 102 -25 110 -28 8 -3 22 -6 30 -7 22 -3 189 -25 230 -30 142 -18 599 2 950 41 74 8 196 21 270 29 74 8 176 19 225 25 50 6 113 14 140 16 66 7 259 41 310 55 22 5 57 15 79 20 21 5 57 18 79 29 22 11 46 20 51 20 30 1 65 59 89 145 32 117 46 184 44 216 -2 27 -23 59 -39 59 -19 0 -40 -31 -35 -51 4 -15 2 -19 -9 -15 -9 3 -16 -3 -19 -17 -4 -13 -14 -23 -23 -24 -9 0 -42 -10 -72 -22 -98 -39 -311 -79 -570 -107 -25 -3 -106 -12 -180 -20 -74 -9 -162 -17 -195 -20 -33 -2 -98 -8 -145 -14 -337 -42 -761 -60 -941 -41 -197 21 -434 67 -509 98 -8 3 -20 7 -26 8 -6 2 -52 19 -101 38 -90 36 -178 83 -263 141 -88 59 -260 249 -260 285 0 6 -3 11 -7 11 -5 0 -13 10 -19 23 -6 12 -36 69 -66 127 -61 119 -73 155 -88 257 -10 69 -46 159 -73 181 -9 8 -15 7 -22 -6z"
       id="path16"
       style="fill:#007f00;fill-opacity:1" />
    <path
       d="M2183 3793 c-13 -9 -23 -23 -23 -33 0 -9 -9 -25 -20 -35 -11 -10 -20 -26 -20 -36 0 -10 -4 -20 -9 -23 -5 -3 -14 -28 -21 -56 -7 -28 -16 -52 -20 -55 -13 -8 -47 -221 -55 -345 -15 -241 -5 -483 26 -630 24 -114 97 -325 143 -410 16 -30 34 -64 40 -75 16 -29 58 -87 78 -107 10 -10 18 -21 18 -25 0 -13 153 -168 185 -188 17 -11 48 -33 70 -50 76 -58 278 -160 400 -203 289 -101 724 -159 1095 -147 350 12 516 30 735 77 50 11 99 21 110 22 12 1 25 5 30 8 6 3 26 8 45 12 59 10 340 105 406 136 34 17 69 30 78 30 9 0 16 5 16 10 0 6 7 10 16 10 13 0 76 29 179 83 11 6 52 26 90 45 39 20 81 43 95 53 14 9 48 29 75 44 28 16 52 31 55 34 3 4 28 20 55 36 28 16 73 46 101 67 28 21 56 38 62 38 7 0 12 5 12 10 0 6 6 10 13 10 8 0 22 9 32 20 10 11 24 20 30 20 7 0 19 7 26 16 8 9 32 28 54 42 65 41 173 151 180 183 4 16 10 29 15 29 4 0 11 35 16 78 11 99 10 94 19 115 14 33 -14 129 -48 165 -29 30 -34 32 -82 26 -27 -4 -61 -16 -75 -26 -23 -18 -25 -27 -26 -103 -1 -45 -5 -88 -8 -94 -4 -6 -42 -37 -84 -68 -42 -31 -79 -59 -82 -62 -6 -8 -41 -29 -60 -38 -8 -4 -52 -31 -97 -60 -45 -29 -85 -53 -88 -53 -4 0 -21 -11 -39 -25 -18 -14 -38 -25 -44 -25 -7 0 -12 -4 -12 -10 0 -5 -9 -10 -19 -10 -11 0 -21 -3 -23 -7 -3 -9 -62 -44 -118 -71 -19 -9 -37 -19 -40 -22 -8 -8 -154 -80 -163 -80 -5 0 -33 -11 -63 -25 -128 -59 -161 -73 -189 -79 -16 -4 -43 -14 -60 -21 -16 -8 -70 -27 -120 -43 -291 -93 -560 -141 -900 -161 -132 -8 -446 -6 -545 4 -25 2 -74 7 -110 10 -80 8 -232 31 -282 44 -21 5 -38 6 -38 3 0 -3 -5 -1 -12 6 -7 7 -23 12 -38 12 -14 0 -77 18 -140 40 -129 45 -131 46 -215 84 -186 85 -421 283 -503 423 -120 205 -153 347 -153 665 0 109 2 202 5 206 2 4 7 31 10 59 4 27 18 88 32 134 41 130 57 233 49 316 -7 81 -19 98 -52 76z"
       id="path18"
       style="fill:#007f00;fill-opacity:1" />
  </g>
</svg>
