<?xml version="1.0" encoding="UTF-8" standalone="no"?>
<svg
   xmlns:dc="http://purl.org/dc/elements/1.1/"
   xmlns:cc="http://creativecommons.org/ns#"
   xmlns:rdf="http://www.w3.org/1999/02/22-rdf-syntax-ns#"
   xmlns:svg="http://www.w3.org/2000/svg"
   xmlns="http://www.w3.org/2000/svg"
   xmlns:sodipodi="http://sodipodi.sourceforge.net/DTD/sodipodi-0.dtd"
   xmlns:inkscape="http://www.inkscape.org/namespaces/inkscape"
   version="1.0"
   width="742.000000pt"
   height="682.000000pt"
   viewBox="0 0 742.000000 682.000000"
   preserveAspectRatio="xMidYMid meet"
   id="svg2"
   inkscape:version="0.91 r13725"
   sodipodi:docname="some_problems2 (1).svg">
  <defs
     id="defs20" />
  <sodipodi:namedview
     pagecolor="#ffffff"
     bordercolor="#666666"
     borderopacity="1"
     objecttolerance="10"
     gridtolerance="10"
     guidetolerance="10"
     inkscape:pageopacity="0"
     inkscape:pageshadow="2"
     inkscape:window-width="700"
     inkscape:window-height="480"
     id="namedview18"
     showgrid="false"
     inkscape:zoom="0.27683284"
     inkscape:cx="463.75"
     inkscape:cy="426.25"
     inkscape:window-x="0"
     inkscape:window-y="0"
     inkscape:window-maximized="0"
     inkscape:current-layer="svg2" />
  <metadata
     id="metadata4">
Created by potrace 1.13, written by Peter Selinger 2001-2015
<rdf:RDF>
  <cc:Work
     rdf:about="">
    <dc:format>image/svg+xml</dc:format>
    <dc:type
       rdf:resource="http://purl.org/dc/dcmitype/StillImage" />
  </cc:Work>
</rdf:RDF>
</metadata>
  <g
     transform="translate(0.000000,682.000000) scale(0.100000,-0.100000)"
     fill="#000000"
     stroke="none"
     id="g6"
     style="fill:#ff8b00;fill-opacity:1">
    <path
       d="M3758 6305 c-13 -12 -2401 -31 -2657 -21 -32 1 -36 -2 -43 -34 -13 -54 -18 -102 -21 -176 l-2 -69 50 -9 c49 -9 1840 -10 2060 -1 61 3 364 7 675 11 436 4 654 2 954 -10 214 -9 391 -18 395 -20 3 -2 65 -7 136 -10 72 -4 164 -11 205 -16 41 -5 107 -12 145 -16 437 -37 799 -88 841 -118 13 -10 15 -36 13 -156 -8 -696 5 -2349 20 -2525 15 -172 29 -306 41 -380 5 -33 16 -109 25 -170 9 -60 25 -159 35 -220 11 -60 29 -173 40 -250 12 -77 34 -225 51 -330 16 -104 36 -245 44 -313 24 -193 44 -362 50 -421 l6 -54 -58 6 c-32 4 -73 9 -92 11 -85 13 -579 56 -693 61 -70 3 -162 7 -205 11 -143 11 -1093 19 -1433 13 -428 -9 -783 -24 -1100 -49 -69 -5 -165 -12 -215 -15 -255 -16 -824 -84 -1095 -131 -80 -14 -174 -29 -210 -34 -36 -5 -144 -25 -240 -45 -307 -63 -400 -77 -485 -73 -64 4 -88 9 -117 29 -21 13 -38 27 -38 32 0 4 -10 24 -23 45 -46 73 -59 157 -65 427 -4 209 8 615 24 765 2 19 6 197 10 395 5 276 2 444 -11 720 -28 582 -32 739 -29 1150 3 373 7 508 18 640 3 33 8 128 11 210 3 83 8 186 10 230 6 106 19 448 19 505 1 77 -12 208 -24 229 -13 25 -38 17 -45 -13 -9 -42 -35 -415 -35 -499 0 -48 -4 -130 -10 -184 -11 -113 -35 -404 -51 -613 -14 -196 -19 -838 -8 -1085 21 -467 35 -931 33 -1080 -2 -184 -32 -839 -39 -873 -3 -12 -5 -155 -5 -317 0 -253 7 -397 26 -505 27 -157 37 -206 45 -221 5 -10 9 -25 9 -35 0 -9 16 -51 36 -93 46 -95 107 -155 182 -177 67 -20 284 -14 361 10 9 3 54 13 101 22 129 24 171 32 220 43 43 9 293 54 355 64 293 47 393 61 570 82 116 13 262 29 325 35 63 5 135 12 160 14 128 13 320 26 605 41 55 3 134 7 175 10 246 16 821 25 1255 19 275 -3 518 -7 540 -9 22 -2 112 -7 200 -10 331 -12 878 -63 1031 -96 68 -15 87 -10 95 26 4 17 19 68 33 114 l26 85 -20 235 c-21 245 -45 434 -79 631 -11 63 -36 219 -55 345 -20 127 -43 268 -51 315 -8 47 -19 114 -25 150 -5 36 -21 135 -34 220 -66 419 -73 534 -81 1360 -3 267 -7 661 -9 875 -3 215 0 498 5 630 9 234 1 415 -21 455 -12 20 -235 70 -385 84 -33 3 -85 8 -115 11 -30 3 -75 8 -100 11 -135 15 -407 42 -420 42 -27 -1 -205 14 -210 17 -3 2 -81 6 -175 10 -93 3 -172 8 -175 10 -17 10 -1252 29 -1262 20z"
       id="path8"
       style="fill:#ff8b00;fill-opacity:1" />
    <path
       d="M2647 4804 c-1 -1 -42 -4 -92 -8 -229 -15 -371 -40 -390 -70 -8 -12 -16 -67 -20 -131 -9 -142 -10 -142 117 -126 410 51 387 49 687 56 129 2 238 8 242 12 17 17 22 122 9 169 -15 52 -34 67 -109 90 -42 12 -93 15 -248 12 -107 -2 -195 -4 -196 -4z"
       id="path10"
       style="fill:#ff8b00;fill-opacity:1" />
    <path
       d="M4954 4804 c-6 -3 -78 -10 -160 -17 l-149 -12 -22 -40 c-12 -22 -24 -62 -27 -90 -3 -27 -9 -66 -14 -85 -13 -60 -5 -78 40 -92 39 -11 126 -6 468 32 41 5 78 7 82 4 15 -9 39 53 64 166 14 66 11 119 -10 132 -12 8 -253 10 -272 2z"
       id="path12"
       style="fill:#ff8b00;fill-opacity:1" />
    <path
       d="M3661 4113 c-17 -68 -42 -290 -36 -329 3 -22 10 -93 15 -159 5 -69 16 -137 25 -160 16 -36 18 -38 30 -21 13 17 17 56 32 306 14 218 -8 400 -47 400 -5 0 -14 -17 -19 -37z"
       id="path14"
       style="fill:#ff8b00;fill-opacity:1" />
    <path
       d="M4859 2806 c-2 -2 -125 -7 -274 -10 -148 -4 -304 -9 -345 -11 -41 -3 -149 -8 -240 -11 -91 -3 -196 -7 -235 -9 -38 -2 -137 -6 -220 -10 -82 -3 -172 -8 -200 -11 -27 -2 -165 -11 -305 -19 -239 -14 -336 -19 -505 -30 -38 -2 -137 -7 -220 -10 -205 -8 -303 -14 -350 -22 -22 -4 -45 -6 -51 -5 -20 4 -32 -21 -38 -78 -3 -30 -9 -83 -12 -117 l-7 -63 39 -16 c33 -14 79 -15 363 -11 180 3 367 8 416 11 171 10 270 16 360 21 50 3 119 8 155 11 138 11 168 13 260 18 124 7 310 16 430 21 52 2 124 6 160 9 36 4 111 6 168 7 56 0 102 3 102 7 0 4 62 8 138 8 75 1 234 5 352 10 274 9 459 8 584 -4 96 -9 100 -9 118 12 9 11 17 26 18 31 0 6 14 43 30 84 45 110 39 178 -15 181 -82 4 -673 9 -676 6z"
       id="path16"
       style="fill:#ff8b00;fill-opacity:1" />
  </g>
</svg>
